<svg width="320" height="320" viewBox="0 0 320 320" fill="none" xmlns="http://www.w3.org/2000/svg" role="img" aria-labelledby="iconTitle iconDesc">
  <title id="iconTitle">SEO With Faiz icon</title>
  <desc id="iconDesc">Icon mark representing trust, growth, and commitment.</desc>
  <defs>
    <linearGradient id="iconBridgeGradient" x1="94" y1="96" x2="222" y2="170" gradientUnits="userSpaceOnUse">
      <stop offset="0" stop-color="#0F766E"/>
      <stop offset="1" stop-color="#0284C7"/>
    </linearGradient>
  </defs>

  <path d="M160 16C214 16 258 59 258 112V144C258 199 218 249 160 280C102 249 62 199 62 144V112C62 59 106 16 160 16Z" fill="#F8FAFC" stroke="#0F172A" stroke-width="8"/>
  <circle cx="160" cy="130" r="84" stroke="#0F172A" stroke-width="6"/>

  <circle cx="160" cy="46" r="6" fill="#0284C7"/>
  <circle cx="231" cy="87" r="6" fill="#0284C7"/>
  <circle cx="231" cy="169" r="6" fill="#0284C7"/>
  <circle cx="160" cy="210" r="6" fill="#0284C7"/>
  <circle cx="89" cy="169" r="6" fill="#0284C7"/>
  <circle cx="89" cy="87" r="6" fill="#0284C7"/>

  <polyline points="118,96 96,130 118,164" stroke="#0F766E" stroke-width="8" stroke-linecap="round" stroke-linejoin="round"/>

  <rect x="188" y="156" width="12" height="34" rx="3" fill="#0F766E"/>
  <rect x="206" y="142" width="12" height="48" rx="3" fill="#0284C7"/>
  <rect x="224" y="124" width="12" height="66" rx="3" fill="#0F172A"/>

  <path d="M114 147C138 106 180 90 226 108" stroke="url(#iconBridgeGradient)" stroke-width="11" stroke-linecap="round"/>
  <path d="M140 148L162 166L208 126" stroke="#F59E0B" stroke-width="8" stroke-linecap="round" stroke-linejoin="round"/>
  <path d="M208 126L208 139M208 126L196 126" stroke="#F59E0B" stroke-width="6" stroke-linecap="round"/>

  <circle cx="143" cy="199" r="10" stroke="#F59E0B" stroke-width="4"/>
  <circle cx="164" cy="199" r="10" stroke="#F59E0B" stroke-width="4"/>
</svg>
